<svg viewBox="0 0 36 36" x="0" y="0" fill="none" xmlns="http://www.w3.org/2000/svg"><defs><filter id="filter0_ddi_6812_248" x="4.430000000000064" y="5.323800000000006" width="26.4015" height="27.9267" filterUnits="userSpaceOnUse" color-interpolation-filters="sRGB" xmlns="http://www.w3.org/2000/svg">
<feFlood flood-opacity="0" result="BackgroundImageFix"/>
<feColorMatrix in="SourceAlpha" type="matrix" values="0 0 0 0 0 0 0 0 0 0 0 0 0 0 0 0 0 0 127 0" result="hardAlpha"/>
<feOffset dx="-1.31726" dy="2.48816"/>
<feGaussianBlur stdDeviation="2.52475"/>
<feComposite in2="hardAlpha" operator="out"/>
<feColorMatrix type="matrix" values="0 0 0 0 0.0506089 0 0 0 0 0.0159861 0 0 0 0 0.191833 0 0 0 0.25 0"/>
<feBlend mode="normal" in2="BackgroundImageFix" result="effect1_dropShadow_6812_248"/>
<feColorMatrix in="SourceAlpha" type="matrix" values="0 0 0 0 0 0 0 0 0 0 0 0 0 0 0 0 0 0 127 0" result="hardAlpha"/>
<feOffset dx="1.24408" dy="-1.1709"/>
<feGaussianBlur stdDeviation="2.19544"/>
<feComposite in2="hardAlpha" operator="out"/>
<feColorMatrix type="matrix" values="0 0 0 0 1 0 0 0 0 1 0 0 0 0 1 0 0 0 0.35 0"/>
<feBlend mode="normal" in2="effect1_dropShadow_6812_248" result="effect2_dropShadow_6812_248"/>
<feBlend mode="normal" in="SourceGraphic" in2="effect2_dropShadow_6812_248" result="shape"/>
<feColorMatrix in="SourceAlpha" type="matrix" values="0 0 0 0 0 0 0 0 0 0 0 0 0 0 0 0 0 0 127 0" result="hardAlpha"/>
<feOffset dy="3.07361"/>
<feGaussianBlur stdDeviation="1.9393"/>
<feComposite in2="hardAlpha" operator="arithmetic" k2="-1" k3="1"/>
<feColorMatrix type="matrix" values="0 0 0 0 1 0 0 0 0 1 0 0 0 0 1 0 0 0 1 0"/>
<feBlend mode="normal" in2="shape" result="effect3_innerShadow_6812_248"/>
</filter><radialGradient id="paint1_radial_6812_248" cx="0" cy="0" r="1" gradientUnits="userSpaceOnUse" gradientTransform="translate(1084 92) rotate(90) scale(18)" xmlns="http://www.w3.org/2000/svg">
<stop stop-color="#1B7005"/>
<stop offset="1" stop-color="#104502"/>
</radialGradient><linearGradient id="paint2_linear_6812_248" x1="20.519999999999982" y1="17.864800000000002" x2="18.289999999999964" y2="28.235" gradientUnits="userSpaceOnUse" xmlns="http://www.w3.org/2000/svg">
<stop stop-color="white" stop-opacity="0.96"/>
<stop offset="1" stop-color="white" stop-opacity="0.23"/>
</linearGradient></defs><g id="AI Avatar_2" xmlns="http://www.w3.org/2000/svg">
<circle id="Ellipse 136_2" cx="18" cy="18" r="18" fill="url(#paint1_radial_6812_248)"/>
<g id="Vector_2" filter="url(#filter0_ddi_6812_248)">
<path d="M22.99,15.1674c-0.06,0 -0.11,-0.0118 -0.15,-0.0354c-0.05,-0.0236 -0.08,-0.0649 -0.1,-0.1239l-0.52,-1.2031l-1.29,-0.5662c-0.06,-0.0236 -0.1,-0.056 -0.12,-0.0973c-0.03,-0.0413 -0.04,-0.0914 -0.04,-0.1504c0,-0.059 0.01,-0.1091 0.04,-0.1504c0.02,-0.0413 0.06,-0.0737 0.12,-0.0973l1.29,-0.5485l0.52,-1.1501c0.02,-0.059 0.05,-0.1003 0.1,-0.1239c0.04,-0.0236 0.09,-0.0354 0.15,-0.0354c0.05,0 0.11,0.0118 0.15,0.0354c0.04,0.0236 0.07,0.0649 0.09,0.1239l0.52,1.1501l1.29,0.5485c0.06,0.0236 0.1,0.056 0.12,0.0973c0.03,0.0413 0.04,0.0914 0.04,0.1504c0,0.059 -0.01,0.1091 -0.04,0.1504c-0.02,0.0413 -0.06,0.0737 -0.12,0.0973l-1.29,0.5662l-0.52,1.2031c-0.02,0.059 -0.05,0.1003 -0.09,0.1239c-0.04,0.0236 -0.1,0.0354 -0.15,0.0354zM22.99,25.7128c-0.05,0 -0.1,-0.0118 -0.15,-0.0354c-0.04,-0.0236 -0.08,-0.0649 -0.1,-0.1239l-0.52,-1.1501l-1.27,-0.5485c-0.06,-0.0236 -0.1,-0.056 -0.12,-0.0973c-0.03,-0.0413 -0.04,-0.0914 -0.04,-0.1504c0,-0.059 0.01,-0.1091 0.04,-0.1504c0.02,-0.0413 0.06,-0.0737 0.12,-0.0973l1.27,-0.5485l0.52,-1.2208c0.02,-0.059 0.05,-0.1003 0.1,-0.1239c0.04,-0.0236 0.09,-0.0354 0.15,-0.0354c0.05,0 0.11,0.0118 0.15,0.0354c0.04,0.0236 0.07,0.0649 0.09,0.1239l0.52,1.2208l1.27,0.5485c0.06,0.0236 0.1,0.056 0.13,0.0973c0.02,0.0413 0.03,0.0914 0.03,0.1504c0,0.059 -0.01,0.1091 -0.03,0.1504c-0.03,0.0413 -0.07,0.0737 -0.13,0.0973l-1.27,0.5485l-0.52,1.1501c-0.02,0.059 -0.06,0.1003 -0.1,0.1239c-0.05,0.0236 -0.1,0.0354 -0.14,0.0354zM15.21,22.6518c-0.09,0 -0.19,-0.0266 -0.27,-0.0796c-0.09,-0.0531 -0.16,-0.1269 -0.21,-0.2212l-1.15,-2.4594l-2.48,-1.1147c-0.09,-0.0472 -0.17,-0.115 -0.22,-0.2035c-0.05,-0.0885 -0.08,-0.1799 -0.08,-0.2742c0,-0.0944 0.03,-0.1858 0.08,-0.2743c0.05,-0.0885 0.13,-0.1563 0.22,-0.2035l2.48,-1.1147l1.15,-2.4417c0.05,-0.1061 0.12,-0.1858 0.21,-0.2388c0.08,-0.0531 0.18,-0.0797 0.27,-0.0797c0.09,0 0.19,0.0266 0.27,0.0797c0.09,0.053 0.16,0.1268 0.21,0.2211l1.17,2.4594l2.46,1.1147c0.11,0.0472 0.19,0.115 0.24,0.2035c0.05,0.0885 0.08,0.1799 0.08,0.2743c0,0.0943 -0.03,0.1857 -0.08,0.2742c-0.05,0.0885 -0.13,0.1563 -0.24,0.2035l-2.46,1.1147l-1.17,2.4594c-0.05,0.1061 -0.12,0.1828 -0.21,0.23c-0.08,0.0472 -0.18,0.0708 -0.27,0.0708z" fill="url(#paint2_linear_6812_248)" shape-rendering="crispEdges"/>
</g>
</g></svg>