<svg width="32" height="32" viewBox="0 0 32 32" fill="none" xmlns="http://www.w3.org/2000/svg">
<g clip-path="url(#clip0_6808_1790)">
<path d="M36.5326 4.03045C37.5302 4.03045 38.339 4.8392 38.339 5.83686V17.7925C38.339 19.0137 38.6052 20.094 39.1375 21.0334C39.7011 21.9414 40.437 22.6617 41.3451 23.194C42.2844 23.695 43.3021 23.9455 44.3981 23.9455C45.494 23.9455 46.496 23.695 47.4041 23.194C48.3435 22.6617 49.0793 21.9414 49.6117 21.0334C50.1753 20.094 50.4571 19.0137 50.4571 17.7925V5.83686C50.4571 4.83921 51.2659 4.03045 52.2635 4.03045H54.0522C55.0499 4.03046 55.8586 4.83922 55.8586 5.83686V17.8395C55.8586 19.6243 55.4985 21.2369 54.7783 22.6773C54.0581 24.1176 53.0405 25.3389 51.7253 26.3409C50.81 27.033 49.7673 27.5579 48.5973 27.9157C47.7585 28.1723 47.1223 28.9065 47.1223 29.7837V35.7131C47.1223 36.7108 46.3136 37.5196 45.3159 37.5196H43.5742C42.5766 37.5196 41.7678 36.7109 41.7678 35.7132V29.8096C41.7678 28.9418 41.1456 28.2108 40.3152 27.9586C39.1029 27.5904 38.0214 27.0668 37.0709 26.3879C35.7557 25.4172 34.7381 24.196 34.0179 22.7243C33.2977 21.2526 32.9376 19.6243 32.9376 17.8395V5.83686C32.9376 4.8392 33.7463 4.03045 34.744 4.03045H36.5326Z" fill="white"/>
<path d="M119.941 3.84483C120.938 3.84483 121.747 4.65359 121.747 5.65124V17.6068C121.747 18.828 122.013 19.9084 122.546 20.8477C123.109 21.7558 123.845 22.476 124.753 23.0084C125.693 23.5094 126.71 23.7598 127.806 23.7599C128.902 23.7599 129.904 23.5094 130.812 23.0084C131.752 22.476 132.488 21.7558 133.02 20.8477C133.583 19.9084 133.865 18.828 133.865 17.6068V5.65124C133.865 4.65359 134.674 3.84483 135.672 3.84483H137.46C138.458 3.84483 139.267 4.65359 139.267 5.65124V17.6539C139.267 19.4387 138.907 21.0513 138.187 22.4916C137.466 23.932 136.449 25.1533 135.134 26.1553C134.218 26.8474 133.175 27.3723 132.006 27.7301C131.167 27.9866 130.531 28.7209 130.531 29.5981V35.5275C130.531 36.5252 129.722 37.334 128.724 37.334H126.982C125.985 37.334 125.176 36.5252 125.176 35.5276V29.624C125.176 28.7562 124.554 28.0252 123.723 27.773C122.511 27.4048 121.43 26.8812 120.479 26.2022C119.164 25.2316 118.146 24.0103 117.426 22.5387C116.706 21.067 116.346 19.4387 116.346 17.6539V5.65124C116.346 4.65359 117.155 3.84483 118.152 3.84483H119.941Z" fill="white"/>
<path fill-rule="evenodd" clip-rule="evenodd" d="M80.354 -6.30281C81.3516 -6.30279 82.1604 -5.49404 82.1604 -4.4964V15.7258C82.1604 18.3561 81.628 20.642 80.5633 22.5834C79.53 24.4934 78.074 25.9651 76.1953 26.9985C74.3478 28.0318 72.1872 28.5485 69.7134 28.5485C67.8034 28.5485 66.0655 28.2509 64.4998 27.656C62.9655 27.0297 61.6504 26.1373 60.5544 24.9788C59.4898 23.8202 58.66 22.4581 58.065 20.8925C57.5014 19.2955 57.2196 17.5419 57.2196 15.6318C57.2196 13.1895 57.7049 11.0602 58.6756 9.24405C59.6776 7.42791 61.0554 6.01881 62.8089 5.01679C64.5625 3.98347 66.5665 3.46679 68.8211 3.46679C69.9483 3.46679 71.0129 3.63907 72.0149 3.98351C73.017 4.32795 73.9251 4.8133 74.7392 5.43956C75.5486 6.06219 76.2033 6.79317 76.7032 7.63246C76.7086 7.64152 76.7184 7.6471 76.7289 7.64711C76.7455 7.64711 76.7588 7.6337 76.7588 7.61719V-4.4964C76.7588 -5.49405 77.5676 -6.3028 78.5653 -6.30281H80.354ZM69.6665 8.06979C68.3201 8.06979 67.1145 8.41427 66.0498 9.10316C64.9852 9.79204 64.1554 10.7314 63.5605 11.9213C62.9656 13.1112 62.668 14.4733 62.668 16.0077C62.668 17.5733 62.9656 18.9511 63.5605 20.141C64.1555 21.3308 64.9852 22.2702 66.0498 22.9591C67.1458 23.6167 68.367 23.9455 69.7134 23.9455C71.0912 23.9455 72.2968 23.6167 73.3301 22.9591C74.3947 22.2702 75.2245 21.3308 75.8194 20.141C76.4144 18.9511 76.7119 17.5733 76.7119 16.0077C76.7119 14.442 76.4144 13.0643 75.8194 11.8744C75.2245 10.6845 74.3947 9.76073 73.3301 9.10316C72.2968 8.41427 71.0756 8.0698 69.6665 8.06979Z" fill="white"/>
<path d="M4.04663 3.72089C5.04427 3.7209 5.85304 4.52965 5.85304 5.5273V19.9893C5.85304 20.359 5.92251 20.6979 6.06151 21.0061C6.2005 21.3142 6.38584 21.5606 6.6175 21.7455C6.84915 21.9304 7.10397 22.0229 7.38196 22.0229C7.65994 22.0229 7.91476 21.9304 8.14641 21.7455C8.37807 21.5606 8.56341 21.3142 8.7024 21.0061C8.8414 20.6979 8.91095 20.359 8.91095 19.9893V16.2039C8.91095 14.2936 9.21207 12.6759 9.81439 11.351C10.4167 10.0262 11.2391 9.02483 12.2816 8.34698C13.3472 7.63832 14.5403 7.28401 15.8607 7.28401C17.1812 7.28401 18.3627 7.63832 19.4051 8.34698C20.4476 9.02483 21.27 10.0262 21.8723 11.351C22.4746 12.6759 22.7757 14.2936 22.7757 16.2039V19.9893C22.7757 20.359 22.8453 20.6979 22.9843 21.0061C23.1233 21.3142 23.3085 21.5607 23.5402 21.7455C23.795 21.9304 24.0615 22.0229 24.3395 22.0229C24.6174 22.0229 24.8723 21.9304 25.1039 21.7455C25.3356 21.5606 25.5209 21.3142 25.6599 21.0061C25.7989 20.6979 25.8684 20.359 25.8684 19.9893V5.5273C25.8684 4.52965 26.6771 3.7209 27.6748 3.72089H29.4481C30.4457 3.72089 31.2545 4.52965 31.2545 5.5273V19.065C31.2545 21.0677 30.9301 22.7315 30.2815 24.0564C29.656 25.3813 28.8104 26.3672 27.7448 27.0143C26.7024 27.6613 25.5672 27.9848 24.3395 27.9848C23.1117 27.9848 21.9649 27.6613 20.8993 27.0143C19.8568 26.3672 19.0113 25.3813 18.3626 24.0564C17.714 22.7315 17.3896 21.0677 17.3896 19.065V15.3257C17.3896 14.9252 17.3202 14.5709 17.1812 14.2628C17.0422 13.9547 16.8568 13.7082 16.6252 13.5233C16.3935 13.3384 16.1387 13.246 15.8607 13.246C15.5827 13.246 15.3163 13.3384 15.0615 13.5233C14.8299 13.7082 14.6445 13.9547 14.5055 14.2628C14.3665 14.5709 14.297 14.9252 14.297 15.3257V19.065C14.297 21.0677 13.9727 22.7315 13.324 24.0564C12.6986 25.3813 11.853 26.3672 10.7874 27.0143C9.74492 27.6613 8.60975 27.9848 7.38196 27.9848C6.15418 27.9848 5.00748 27.6613 3.94186 27.0143C2.8994 26.3672 2.05384 25.3813 1.4052 24.0564C0.77972 22.7315 0.466943 21.0677 0.46694 19.065V5.5273C0.466941 4.52965 1.2757 3.72089 2.27335 3.72089H4.04663Z" fill="white"/>
<path d="M111.818 -6.48842C112.816 -6.48841 113.625 -5.67966 113.625 -4.68201V25.9928C113.625 26.9904 112.816 27.7992 111.818 27.7992H110.03C109.032 27.7992 108.223 26.9904 108.223 25.9928V-4.68201C108.223 -5.67966 109.032 -6.48842 110.03 -6.48842H111.818Z" fill="white"/>
<path d="M95.7803 3.23976C98.348 3.23976 100.462 3.9457 102.121 5.04164C103.781 6.13759 105.002 7.60929 105.785 9.45674C106.599 11.3042 107.006 13.3709 107.006 15.6567C107.006 15.9698 106.99 16.3299 106.959 16.737C106.916 17.2984 106.43 17.6764 105.867 17.6764H96.5608C96.1298 17.6764 95.7803 17.327 95.7803 16.8959V14.7933C95.7803 14.3622 96.1298 14.0128 96.5608 14.0128H99.7944C100.778 14.0128 102.05 13.1935 101.799 12.242C101.675 11.651 101.332 11.0545 101.02 10.5248C100.291 9.54923 99.3408 8.78421 98.2548 8.30879C96.8585 7.69754 94.5524 7.66795 93.0991 8.09694C91.6457 8.52593 90.3632 9.45882 89.4488 10.7521C88.5345 12.0454 88.039 13.6274 88.0386 15.2546C88.0381 16.3982 88.2823 17.5249 88.7504 18.5475C88.8319 18.7254 88.8531 18.9261 88.8001 19.1145L88.0689 21.7118C88.0326 21.8405 88.0294 21.9775 88.0596 22.108C88.0898 22.2385 88.1523 22.3577 88.2404 22.4528C88.3285 22.548 88.4388 22.6155 88.5597 22.6481C88.6805 22.6807 88.8073 22.6773 88.9265 22.6381L91.0346 21.9446C91.2765 21.8651 91.5404 21.911 91.7528 22.0513C92.1756 22.3306 92.6376 22.5706 93.139 22.7712C94.235 23.1783 95.8429 23.5143 97.3456 23.3553C98.5125 23.2319 99.9374 22.4441 100.781 21.9156C101.176 21.6682 101.71 21.7858 101.94 22.1908L103.453 24.852C103.661 25.2169 103.543 25.6782 103.176 25.883C101.921 26.5845 99.1052 28.019 97.0707 28.019C94.3778 28.019 91.7456 27.4838 89.7103 26.4818C87.7063 25.4485 86.1406 24.0394 85.0133 22.2546C83.8861 20.4384 83.3224 18.3561 83.3224 16.0077C83.3224 13.534 83.8235 11.3577 84.8255 9.4789C85.8275 7.60013 87.2053 6.12845 88.9588 5.06381C90.7123 3.99917 93.4945 3.23976 95.7803 3.23976Z" fill="white"/>
</g>
<defs>
<clipPath id="clip0_6808_1790">
<rect width="32" height="32" fill="white"/>
</clipPath>
</defs>
</svg>
